<?xml version="1.0" standalone="no"?><!DOCTYPE svg PUBLIC "-//W3C//DTD SVG 1.1//EN" "http://www.w3.org/Graphics/SVG/1.1/DTD/svg11.dtd"><svg t="1693812260933" class="icon" viewBox="0 0 1024 1024" version="1.1" xmlns="http://www.w3.org/2000/svg" p-id="1533" xmlns:xlink="http://www.w3.org/1999/xlink" width="128" height="128"><path d="M797.2 906.19H343.72a84.88 84.88 0 0 1-84.88-84.87V292.53a84.88 84.88 0 0 1 84.88-84.88H667.2l214.88 214.88v398.79a84.88 84.88 0 0 1-84.88 84.87z" fill="#FCBFB9" p-id="1534"></path><path d="M698 536.58H325.48a27.5 27.5 0 1 1 0-55H698a27.5 27.5 0 0 1 0 55zM484 383.5H325.63a27.5 27.5 0 0 1 0-55H484a27.5 27.5 0 0 1 0 55zM694.66 689.67H322.14a27.5 27.5 0 0 1 0-55h372.52a27.5 27.5 0 0 1 0 55z" fill="#333333" p-id="1535"></path><path d="M736.2 871.69H282.72a112.51 112.51 0 0 1-112.38-112.37V230.53a112.51 112.51 0 0 1 112.38-112.38H606.2a27.52 27.52 0 0 1 19.45 8.06l214.87 214.87a27.5 27.5 0 0 1 8.06 19.45v398.79A112.51 112.51 0 0 1 736.2 871.69zM282.72 173.15a57.44 57.44 0 0 0-57.38 57.38v528.79a57.44 57.44 0 0 0 57.38 57.37H736.2a57.44 57.44 0 0 0 57.38-57.37v-387.4L594.81 173.15z" fill="#333333" p-id="1536"></path><path d="M820.5 385.5H671.56c-51.86 0-94.06-41.64-94.06-92.82V146.5a27.5 27.5 0 0 1 46.76-19.63l215.5 211.5a27.5 27.5 0 0 1-19.26 47.13zM632.5 212v80.66c0 20.85 17.52 37.82 39.06 37.82h81.66z" fill="#333333" p-id="1537"></path></svg>