<?xml version="1.0" standalone="no"?><!DOCTYPE svg PUBLIC "-//W3C//DTD SVG 1.1//EN" "http://www.w3.org/Graphics/SVG/1.1/DTD/svg11.dtd"><svg t="1693813483750" class="icon" viewBox="0 0 1024 1024" version="1.1" xmlns="http://www.w3.org/2000/svg" p-id="1990" xmlns:xlink="http://www.w3.org/1999/xlink" width="128" height="128"><path d="M957.217391 892.905739a11.486609 11.486609 0 0 1-11.464348 11.464348H78.246957A11.486609 11.486609 0 0 1 66.782609 892.905739V145.029565C66.782609 138.707478 71.92487 133.565217 78.246957 133.565217l271.89426 0.044522 85.882435 134.144c6.144 9.572174 16.740174 15.36 28.137739 15.36h481.591652c6.322087 0 11.464348 5.142261 11.464348 11.486609v598.305391z m-11.464348-676.574609H482.415304l-85.882434-134.121739a33.346783 33.346783 0 0 0-28.115479-15.382261L78.246957 66.782609A78.336 78.336 0 0 0 0 145.029565v747.876174a78.358261 78.358261 0 0 0 78.246957 78.246957h867.506086A78.358261 78.358261 0 0 0 1024 892.905739V294.600348a78.358261 78.358261 0 0 0-78.246957-78.269218z" fill="#504A4A" p-id="1991"></path><path d="M610.415304 375.451826a33.391304 33.391304 0 1 0-47.193043 47.193044l116.134956 116.179478H264.013913a33.391304 33.391304 0 1 0 0 66.782609h415.343304L563.2 721.764174a33.391304 33.391304 0 1 0 47.215304 47.193043l173.145044-173.145043a33.391304 33.391304 0 0 0 0-47.215304l-173.145044-173.145044z" fill="#FA4E4E" p-id="1992"></path></svg>