<?xml version="1.0" standalone="no"?><!DOCTYPE svg PUBLIC "-//W3C//DTD SVG 1.1//EN" "http://www.w3.org/Graphics/SVG/1.1/DTD/svg11.dtd"><svg t="1692849277387" class="icon" viewBox="0 0 1024 1024" version="1.1" xmlns="http://www.w3.org/2000/svg" p-id="2488" xmlns:xlink="http://www.w3.org/1999/xlink" width="128" height="128"><path d="M409.6 678.4h6.4c19.2 0 38.4 19.2 38.4 38.4s-19.2 38.4-38.4 38.4H332.8c-19.2 0-38.4-19.2-38.4-38.4s19.2-38.4 38.4-38.4h6.4V371.2h-6.4c-19.2 0-38.4-19.2-38.4-38.4s19.2-38.4 38.4-38.4h83.2c19.2 0 38.4 19.2 38.4 38.4s-19.2 38.4-38.4 38.4h-6.4v307.2z m294.4 243.2H211.2c-83.2 0-147.2-64-147.2-147.2V275.2C64 192 128 128 211.2 128H704c83.2 0 147.2 64 147.2 147.2 0 25.6-12.8 32-38.4 32s-38.4-12.8-38.4-32c0-38.4-32-70.4-70.4-70.4H211.2c-38.4 0-70.4 32-70.4 70.4v499.2c0 38.4 32 70.4 70.4 70.4H704c38.4 0 70.4-32 70.4-70.4 0-19.2 19.2-38.4 38.4-38.4s38.4 19.2 38.4 38.4c0 76.8-64 147.2-147.2 147.2z m-12.8-556.8h192c19.2 0 32 12.8 32 32s-12.8 32-32 32h-192c-19.2 0-32-12.8-32-32s12.8-32 32-32z m0 128h192c19.2 0 32 12.8 32 32s-12.8 32-32 32h-192c-19.2 0-32-12.8-32-32s12.8-32 32-32z m0 128h192c19.2 0 32 12.8 32 32s-12.8 32-32 32h-192c-19.2 0-32-12.8-32-32s12.8-32 32-32z" fill="#333333" p-id="2489"></path></svg>